<svg width="206" height="117" viewBox="0 0 206 117" fill="none" xmlns="http://www.w3.org/2000/svg">
<path d="M47.8477 65.2168H55.0742V77.9121H47.8477V93H31.3926V77.9121H3.90234L2.92578 67.8535L31.3926 22.0527V21.9062H47.8477V65.2168ZM18.5996 65.2168H31.3926V43.3418L30.3672 45.002L18.5996 65.2168Z" fill="black"/>
<path d="M47.8477 65.2168H46.8477V66.2168H47.8477V65.2168ZM55.0742 65.2168H56.0742V64.2168H55.0742V65.2168ZM55.0742 77.9121V78.9121H56.0742V77.9121H55.0742ZM47.8477 77.9121V76.9121H46.8477V77.9121H47.8477ZM47.8477 93V94H48.8477V93H47.8477ZM31.3926 93H30.3926V94H31.3926V93ZM31.3926 77.9121H32.3926V76.9121H31.3926V77.9121ZM3.90234 77.9121L2.90702 78.0087L2.99473 78.9121H3.90234V77.9121ZM2.92578 67.8535L2.07646 67.3256L1.89775 67.6132L1.93046 67.9501L2.92578 67.8535ZM31.3926 22.0527L32.2419 22.5806L32.3926 22.3382V22.0527H31.3926ZM31.3926 21.9062V20.9062H30.3926V21.9062H31.3926ZM47.8477 21.9062H48.8477V20.9062H47.8477V21.9062ZM18.5996 65.2168L17.7354 64.7137L16.8604 66.2168H18.5996V65.2168ZM31.3926 65.2168V66.2168H32.3926V65.2168H31.3926ZM31.3926 43.3418H32.3926V39.8198L30.5418 42.8163L31.3926 43.3418ZM30.3672 45.002L29.5164 44.4765L29.5095 44.4876L29.503 44.4989L30.3672 45.002ZM47.8477 66.2168H55.0742V64.2168H47.8477V66.2168ZM54.0742 65.2168V77.9121H56.0742V65.2168H54.0742ZM55.0742 76.9121H47.8477V78.9121H55.0742V76.9121ZM46.8477 77.9121V93H48.8477V77.9121H46.8477ZM47.8477 92H31.3926V94H47.8477V92ZM32.3926 93V77.9121H30.3926V93H32.3926ZM31.3926 76.9121H3.90234V78.9121H31.3926V76.9121ZM4.89766 77.8155L3.9211 67.7569L1.93046 67.9501L2.90702 78.0087L4.89766 77.8155ZM3.7751 68.3814L32.2419 22.5806L30.5433 21.5249L2.07646 67.3256L3.7751 68.3814ZM32.3926 22.0527V21.9062H30.3926V22.0527H32.3926ZM31.3926 22.9062H47.8477V20.9062H31.3926V22.9062ZM46.8477 21.9062V65.2168H48.8477V21.9062H46.8477ZM18.5996 66.2168H31.3926V64.2168H18.5996V66.2168ZM32.3926 65.2168V43.3418H30.3926V65.2168H32.3926ZM30.5418 42.8163L29.5164 44.4765L31.218 45.5274L32.2434 43.8673L30.5418 42.8163ZM29.503 44.4989L17.7354 64.7137L19.4638 65.7199L31.2314 45.505L29.503 44.4989Z" fill="black"/>
<path d="M121.262 86.1641L118.186 83.6071L118.181 83.6128L118.176 83.6185L121.262 86.1641ZM84.6406 28.7422L81.5646 26.1852L81.5599 26.1909L81.5551 26.1967L84.6406 28.7422ZM109.299 37.4336L105.758 39.2947L105.763 39.3041L105.768 39.3136L109.299 37.4336ZM96.75 37.1406L93.2534 35.1981L93.243 35.2167L93.2328 35.2355L96.75 37.1406ZM94.6992 47.7852L90.7001 47.703L90.6992 47.7441V47.7852H94.6992ZM96.7012 77.6191L93.1808 79.5183L93.1861 79.5281L93.1914 79.5378L96.7012 77.6191ZM109.25 77.7168L112.738 79.6756L112.743 79.6655L112.749 79.6553L109.25 77.7168ZM111.301 66.4375L115.301 66.463L115.301 66.4502V66.4375H111.301ZM123.756 63.9473C123.756 73 121.712 79.3654 118.186 83.6071L124.338 88.721C129.471 82.546 131.756 74.1002 131.756 63.9473H123.756ZM118.176 83.6185C114.767 87.7514 109.916 89.9766 103.049 89.9766V97.9766C111.872 97.9766 119.163 94.9934 124.347 88.7096L118.176 83.6185ZM103.049 89.9766C96.114 89.9766 91.2142 87.7331 87.7733 83.5677L81.6056 88.6628C86.8235 94.9792 94.1633 97.9766 103.049 97.9766V89.9766ZM87.7733 83.5677C84.2352 79.2847 82.1953 72.925 82.1953 63.9473H74.1953C74.1953 74.045 76.4849 82.464 81.6056 88.6628L87.7733 83.5677ZM82.1953 63.9473V50.959H74.1953V63.9473H82.1953ZM82.1953 50.959C82.1953 41.9 84.2262 35.53 87.7261 31.2877L81.5551 26.1967C76.4613 32.371 74.1953 40.8122 74.1953 50.959H82.1953ZM87.7167 31.2991C91.158 27.1592 96.0463 24.9297 102.951 24.9297V16.9297C94.1009 16.9297 86.7821 19.9085 81.5646 26.1852L87.7167 31.2991ZM102.951 24.9297C109.847 24.9297 114.734 27.1691 118.178 31.3385L124.346 26.2435C119.131 19.9311 111.81 16.9297 102.951 16.9297V24.9297ZM118.178 31.3385C121.714 35.6194 123.756 41.9936 123.756 51.0078H131.756C131.756 40.8814 129.468 32.4445 124.346 26.2435L118.178 31.3385ZM123.756 51.0078V63.9473H131.756V51.0078H123.756ZM115.301 48.8594C115.301 43.5398 114.63 38.9347 112.83 35.5536L105.768 39.3136C106.637 40.9455 107.301 43.9576 107.301 48.8594H115.301ZM112.839 35.5725C111.887 33.7611 110.552 32.2169 108.769 31.1472C106.988 30.0788 104.997 29.625 102.951 29.625V37.625C103.802 37.625 104.318 37.806 104.653 38.0071C104.986 38.207 105.376 38.567 105.758 39.2947L112.839 35.5725ZM102.951 29.625C100.977 29.625 99.0451 30.0372 97.3041 31.0242C95.5518 32.0176 94.2145 33.468 93.2534 35.1981L100.247 39.0832C100.588 38.4695 100.935 38.162 101.25 37.9836C101.576 37.7987 102.094 37.625 102.951 37.625V29.625ZM93.2328 35.2355C91.5067 38.4222 90.8021 42.7392 90.7001 47.703L98.6984 47.8673C98.7917 43.3259 99.4543 40.5465 100.267 39.0458L93.2328 35.2355ZM90.6992 47.7852V65.9492H98.6992V47.7852H90.6992ZM90.6992 65.9492C90.6992 71.4272 91.3602 76.1437 93.1808 79.5183L100.222 75.72C99.3728 74.1467 98.6992 71.0832 98.6992 65.9492H90.6992ZM93.1914 79.5378C94.1609 81.3112 95.5116 82.8044 97.2902 83.8305C99.0602 84.8517 101.03 85.2812 103.049 85.2812V77.2812C102.171 77.2812 101.634 77.1005 101.288 76.901C100.951 76.7064 100.576 76.3684 100.211 75.7005L93.1914 79.5378ZM103.049 85.2812C105.025 85.2812 106.954 84.8572 108.692 83.8581C110.436 82.8558 111.769 81.4006 112.738 79.6756L105.762 75.758C105.397 76.4093 105.029 76.7364 104.705 76.9222C104.377 77.1112 103.872 77.2812 103.049 77.2812V85.2812ZM112.749 79.6553C114.581 76.3487 115.267 71.7609 115.301 66.463L107.301 66.412C107.27 71.3355 106.588 74.2672 105.751 75.7782L112.749 79.6553ZM115.301 66.4375V48.8594H107.301V66.4375H115.301Z" fill="black"/>
<path d="M195.848 65.2168H203.074V77.9121H195.848V93H179.393V77.9121H151.902L150.926 67.8535L179.393 22.0527V21.9062H195.848V65.2168ZM166.6 65.2168H179.393V43.3418L178.367 45.002L166.6 65.2168Z" fill="black"/>
<path d="M195.848 65.2168H194.848V66.2168H195.848V65.2168ZM203.074 65.2168H204.074V64.2168H203.074V65.2168ZM203.074 77.9121V78.9121H204.074V77.9121H203.074ZM195.848 77.9121V76.9121H194.848V77.9121H195.848ZM195.848 93V94H196.848V93H195.848ZM179.393 93H178.393V94H179.393V93ZM179.393 77.9121H180.393V76.9121H179.393V77.9121ZM151.902 77.9121L150.907 78.0087L150.995 78.9121H151.902V77.9121ZM150.926 67.8535L150.076 67.3256L149.898 67.6132L149.93 67.9501L150.926 67.8535ZM179.393 22.0527L180.242 22.5806L180.393 22.3382V22.0527H179.393ZM179.393 21.9062V20.9062H178.393V21.9062H179.393ZM195.848 21.9062H196.848V20.9062H195.848V21.9062ZM166.6 65.2168L165.735 64.7137L164.86 66.2168H166.6V65.2168ZM179.393 65.2168V66.2168H180.393V65.2168H179.393ZM179.393 43.3418H180.393V39.8198L178.542 42.8163L179.393 43.3418ZM178.367 45.002L177.516 44.4765L177.51 44.4876L177.503 44.4989L178.367 45.002ZM195.848 66.2168H203.074V64.2168H195.848V66.2168ZM202.074 65.2168V77.9121H204.074V65.2168H202.074ZM203.074 76.9121H195.848V78.9121H203.074V76.9121ZM194.848 77.9121V93H196.848V77.9121H194.848ZM195.848 92H179.393V94H195.848V92ZM180.393 93V77.9121H178.393V93H180.393ZM179.393 76.9121H151.902V78.9121H179.393V76.9121ZM152.898 77.8155L151.921 67.7569L149.93 67.9501L150.907 78.0087L152.898 77.8155ZM151.775 68.3814L180.242 22.5806L178.543 21.5249L150.076 67.3256L151.775 68.3814ZM180.393 22.0527V21.9062H178.393V22.0527H180.393ZM179.393 22.9062H195.848V20.9062H179.393V22.9062ZM194.848 21.9062V65.2168H196.848V21.9062H194.848ZM166.6 66.2168H179.393V64.2168H166.6V66.2168ZM180.393 65.2168V43.3418H178.393V65.2168H180.393ZM178.542 42.8163L177.516 44.4765L179.218 45.5274L180.243 43.8673L178.542 42.8163ZM177.503 44.4989L165.735 64.7137L167.464 65.7199L179.231 45.505L177.503 44.4989Z" fill="black"/>
</svg>
